<?xml version="1.0" encoding="utf-8" standalone="no"?>
<!DOCTYPE svg PUBLIC "-//W3C//DTD SVG 1.1//EN"
  "http://www.w3.org/Graphics/SVG/1.1/DTD/svg11.dtd">
<svg xmlns:xlink="http://www.w3.org/1999/xlink" width="576pt" height="432pt" viewBox="0 0 576 432" xmlns="http://www.w3.org/2000/svg" version="1.1">
 <metadata>
  <rdf:RDF xmlns:dc="http://purl.org/dc/elements/1.1/" xmlns:cc="http://creativecommons.org/ns#" xmlns:rdf="http://www.w3.org/1999/02/22-rdf-syntax-ns#">
   <cc:Work>
    <dc:type rdf:resource="http://purl.org/dc/dcmitype/StillImage"/>
    <dc:date>2025-05-26T21:00:30.749987</dc:date>
    <dc:format>image/svg+xml</dc:format>
    <dc:creator>
     <cc:Agent>
      <dc:title>Matplotlib v3.10.3, https://matplotlib.org/</dc:title>
     </cc:Agent>
    </dc:creator>
   </cc:Work>
  </rdf:RDF>
 </metadata>
 <defs>
  <style type="text/css">*{stroke-linejoin: round; stroke-linecap: butt}</style>
 </defs>
 <g id="figure_1">
  <g id="patch_1">
   <path d="M 0 432 
L 576 432 
L 576 0 
L 0 0 
z
" style="fill: #ffffff"/>
  </g>
  <g id="axes_1">
   <g id="patch_2">
    <path d="M 72 384.48 
L 518.4 384.48 
L 518.4 51.84 
L 72 51.84 
z
" style="fill: #ffffff"/>
   </g>
   <g id="matplotlib.axis_1">
    <g id="xtick_1">
     <g id="line2d_1">
      <path d="M 88.191736 384.48 
L 88.191736 51.84 
" clip-path="url(#p06065ad8cf)" style="fill: none; stroke: #b0b0b0; stroke-width: 0.8; stroke-linecap: square"/>
     </g>
     <g id="line2d_2">
      <defs>
       <path id="m7e3e17f4c6" d="M 0 0 
L 0 3.5 
" style="stroke: #000000; stroke-width: 0.8"/>
      </defs>
      <g>
       <use xlink:href="#m7e3e17f4c6" x="88.191736" y="384.48" style="stroke: #000000; stroke-width: 0.8"/>
      </g>
     </g>
     <g id="text_1">
      <!-- 0 -->
      <g transform="translate(85.010486 399.078438) scale(0.1 -0.1)">
       <defs>
        <path id="DejaVuSans-30" d="M 2034 4250 
Q 1547 4250 1301 3770 
Q 1056 3291 1056 2328 
Q 1056 1369 1301 889 
Q 1547 409 2034 409 
Q 2525 409 2770 889 
Q 3016 1369 3016 2328 
Q 3016 3291 2770 3770 
Q 2525 4250 2034 4250 
z
M 2034 4750 
Q 2819 4750 3233 4129 
Q 3647 3509 3647 2328 
Q 3647 1150 3233 529 
Q 2819 -91 2034 -91 
Q 1250 -91 836 529 
Q 422 1150 422 2328 
Q 422 3509 836 4129 
Q 1250 4750 2034 4750 
z
" transform="scale(0.015625)"/>
       </defs>
       <use xlink:href="#DejaVuSans-30"/>
      </g>
     </g>
    </g>
    <g id="xtick_2">
     <g id="line2d_3">
      <path d="M 170.175207 384.48 
L 170.175207 51.84 
" clip-path="url(#p06065ad8cf)" style="fill: none; stroke: #b0b0b0; stroke-width: 0.8; stroke-linecap: square"/>
     </g>
     <g id="line2d_4">
      <g>
       <use xlink:href="#m7e3e17f4c6" x="170.175207" y="384.48" style="stroke: #000000; stroke-width: 0.8"/>
      </g>
     </g>
     <g id="text_2">
      <!-- 20 -->
      <g transform="translate(163.812707 399.078438) scale(0.1 -0.1)">
       <defs>
        <path id="DejaVuSans-32" d="M 1228 531 
L 3431 531 
L 3431 0 
L 469 0 
L 469 531 
Q 828 903 1448 1529 
Q 2069 2156 2228 2338 
Q 2531 2678 2651 2914 
Q 2772 3150 2772 3378 
Q 2772 3750 2511 3984 
Q 2250 4219 1831 4219 
Q 1534 4219 1204 4116 
Q 875 4013 500 3803 
L 500 4441 
Q 881 4594 1212 4672 
Q 1544 4750 1819 4750 
Q 2544 4750 2975 4387 
Q 3406 4025 3406 3419 
Q 3406 3131 3298 2873 
Q 3191 2616 2906 2266 
Q 2828 2175 2409 1742 
Q 1991 1309 1228 531 
z
" transform="scale(0.015625)"/>
       </defs>
       <use xlink:href="#DejaVuSans-32"/>
       <use xlink:href="#DejaVuSans-30" transform="translate(63.623047 0)"/>
      </g>
     </g>
    </g>
    <g id="xtick_3">
     <g id="line2d_5">
      <path d="M 252.158678 384.48 
L 252.158678 51.84 
" clip-path="url(#p06065ad8cf)" style="fill: none; stroke: #b0b0b0; stroke-width: 0.8; stroke-linecap: square"/>
     </g>
     <g id="line2d_6">
      <g>
       <use xlink:href="#m7e3e17f4c6" x="252.158678" y="384.48" style="stroke: #000000; stroke-width: 0.8"/>
      </g>
     </g>
     <g id="text_3">
      <!-- 40 -->
      <g transform="translate(245.796178 399.078438) scale(0.1 -0.1)">
       <defs>
        <path id="DejaVuSans-34" d="M 2419 4116 
L 825 1625 
L 2419 1625 
L 2419 4116 
z
M 2253 4666 
L 3047 4666 
L 3047 1625 
L 3713 1625 
L 3713 1100 
L 3047 1100 
L 3047 0 
L 2419 0 
L 2419 1100 
L 313 1100 
L 313 1709 
L 2253 4666 
z
" transform="scale(0.015625)"/>
       </defs>
       <use xlink:href="#DejaVuSans-34"/>
       <use xlink:href="#DejaVuSans-30" transform="translate(63.623047 0)"/>
      </g>
     </g>
    </g>
    <g id="xtick_4">
     <g id="line2d_7">
      <path d="M 334.142149 384.48 
L 334.142149 51.84 
" clip-path="url(#p06065ad8cf)" style="fill: none; stroke: #b0b0b0; stroke-width: 0.8; stroke-linecap: square"/>
     </g>
     <g id="line2d_8">
      <g>
       <use xlink:href="#m7e3e17f4c6" x="334.142149" y="384.48" style="stroke: #000000; stroke-width: 0.8"/>
      </g>
     </g>
     <g id="text_4">
      <!-- 60 -->
      <g transform="translate(327.779649 399.078438) scale(0.1 -0.1)">
       <defs>
        <path id="DejaVuSans-36" d="M 2113 2584 
Q 1688 2584 1439 2293 
Q 1191 2003 1191 1497 
Q 1191 994 1439 701 
Q 1688 409 2113 409 
Q 2538 409 2786 701 
Q 3034 994 3034 1497 
Q 3034 2003 2786 2293 
Q 2538 2584 2113 2584 
z
M 3366 4563 
L 3366 3988 
Q 3128 4100 2886 4159 
Q 2644 4219 2406 4219 
Q 1781 4219 1451 3797 
Q 1122 3375 1075 2522 
Q 1259 2794 1537 2939 
Q 1816 3084 2150 3084 
Q 2853 3084 3261 2657 
Q 3669 2231 3669 1497 
Q 3669 778 3244 343 
Q 2819 -91 2113 -91 
Q 1303 -91 875 529 
Q 447 1150 447 2328 
Q 447 3434 972 4092 
Q 1497 4750 2381 4750 
Q 2619 4750 2861 4703 
Q 3103 4656 3366 4563 
z
" transform="scale(0.015625)"/>
       </defs>
       <use xlink:href="#DejaVuSans-36"/>
       <use xlink:href="#DejaVuSans-30" transform="translate(63.623047 0)"/>
      </g>
     </g>
    </g>
    <g id="xtick_5">
     <g id="line2d_9">
      <path d="M 416.12562 384.48 
L 416.12562 51.84 
" clip-path="url(#p06065ad8cf)" style="fill: none; stroke: #b0b0b0; stroke-width: 0.8; stroke-linecap: square"/>
     </g>
     <g id="line2d_10">
      <g>
       <use xlink:href="#m7e3e17f4c6" x="416.12562" y="384.48" style="stroke: #000000; stroke-width: 0.8"/>
      </g>
     </g>
     <g id="text_5">
      <!-- 80 -->
      <g transform="translate(409.76312 399.078438) scale(0.1 -0.1)">
       <defs>
        <path id="DejaVuSans-38" d="M 2034 2216 
Q 1584 2216 1326 1975 
Q 1069 1734 1069 1313 
Q 1069 891 1326 650 
Q 1584 409 2034 409 
Q 2484 409 2743 651 
Q 3003 894 3003 1313 
Q 3003 1734 2745 1975 
Q 2488 2216 2034 2216 
z
M 1403 2484 
Q 997 2584 770 2862 
Q 544 3141 544 3541 
Q 544 4100 942 4425 
Q 1341 4750 2034 4750 
Q 2731 4750 3128 4425 
Q 3525 4100 3525 3541 
Q 3525 3141 3298 2862 
Q 3072 2584 2669 2484 
Q 3125 2378 3379 2068 
Q 3634 1759 3634 1313 
Q 3634 634 3220 271 
Q 2806 -91 2034 -91 
Q 1263 -91 848 271 
Q 434 634 434 1313 
Q 434 1759 690 2068 
Q 947 2378 1403 2484 
z
M 1172 3481 
Q 1172 3119 1398 2916 
Q 1625 2713 2034 2713 
Q 2441 2713 2670 2916 
Q 2900 3119 2900 3481 
Q 2900 3844 2670 4047 
Q 2441 4250 2034 4250 
Q 1625 4250 1398 4047 
Q 1172 3844 1172 3481 
z
" transform="scale(0.015625)"/>
       </defs>
       <use xlink:href="#DejaVuSans-38"/>
       <use xlink:href="#DejaVuSans-30" transform="translate(63.623047 0)"/>
      </g>
     </g>
    </g>
    <g id="xtick_6">
     <g id="line2d_11">
      <path d="M 498.109091 384.48 
L 498.109091 51.84 
" clip-path="url(#p06065ad8cf)" style="fill: none; stroke: #b0b0b0; stroke-width: 0.8; stroke-linecap: square"/>
     </g>
     <g id="line2d_12">
      <g>
       <use xlink:href="#m7e3e17f4c6" x="498.109091" y="384.48" style="stroke: #000000; stroke-width: 0.8"/>
      </g>
     </g>
     <g id="text_6">
      <!-- 100 -->
      <g transform="translate(488.565341 399.078438) scale(0.1 -0.1)">
       <defs>
        <path id="DejaVuSans-31" d="M 794 531 
L 1825 531 
L 1825 4091 
L 703 3866 
L 703 4441 
L 1819 4666 
L 2450 4666 
L 2450 531 
L 3481 531 
L 3481 0 
L 794 0 
L 794 531 
z
" transform="scale(0.015625)"/>
       </defs>
       <use xlink:href="#DejaVuSans-31"/>
       <use xlink:href="#DejaVuSans-30" transform="translate(63.623047 0)"/>
       <use xlink:href="#DejaVuSans-30" transform="translate(127.246094 0)"/>
      </g>
     </g>
    </g>
    <g id="text_7">
     <!-- Iteraciones -->
     <g transform="translate(267.521094 412.756563) scale(0.1 -0.1)">
      <defs>
       <path id="DejaVuSans-49" d="M 628 4666 
L 1259 4666 
L 1259 0 
L 628 0 
L 628 4666 
z
" transform="scale(0.015625)"/>
       <path id="DejaVuSans-74" d="M 1172 4494 
L 1172 3500 
L 2356 3500 
L 2356 3053 
L 1172 3053 
L 1172 1153 
Q 1172 725 1289 603 
Q 1406 481 1766 481 
L 2356 481 
L 2356 0 
L 1766 0 
Q 1100 0 847 248 
Q 594 497 594 1153 
L 594 3053 
L 172 3053 
L 172 3500 
L 594 3500 
L 594 4494 
L 1172 4494 
z
" transform="scale(0.015625)"/>
       <path id="DejaVuSans-65" d="M 3597 1894 
L 3597 1613 
L 953 1613 
Q 991 1019 1311 708 
Q 1631 397 2203 397 
Q 2534 397 2845 478 
Q 3156 559 3463 722 
L 3463 178 
Q 3153 47 2828 -22 
Q 2503 -91 2169 -91 
Q 1331 -91 842 396 
Q 353 884 353 1716 
Q 353 2575 817 3079 
Q 1281 3584 2069 3584 
Q 2775 3584 3186 3129 
Q 3597 2675 3597 1894 
z
M 3022 2063 
Q 3016 2534 2758 2815 
Q 2500 3097 2075 3097 
Q 1594 3097 1305 2825 
Q 1016 2553 972 2059 
L 3022 2063 
z
" transform="scale(0.015625)"/>
       <path id="DejaVuSans-72" d="M 2631 2963 
Q 2534 3019 2420 3045 
Q 2306 3072 2169 3072 
Q 1681 3072 1420 2755 
Q 1159 2438 1159 1844 
L 1159 0 
L 581 0 
L 581 3500 
L 1159 3500 
L 1159 2956 
Q 1341 3275 1631 3429 
Q 1922 3584 2338 3584 
Q 2397 3584 2469 3576 
Q 2541 3569 2628 3553 
L 2631 2963 
z
" transform="scale(0.015625)"/>
       <path id="DejaVuSans-61" d="M 2194 1759 
Q 1497 1759 1228 1600 
Q 959 1441 959 1056 
Q 959 750 1161 570 
Q 1363 391 1709 391 
Q 2188 391 2477 730 
Q 2766 1069 2766 1631 
L 2766 1759 
L 2194 1759 
z
M 3341 1997 
L 3341 0 
L 2766 0 
L 2766 531 
Q 2569 213 2275 61 
Q 1981 -91 1556 -91 
Q 1019 -91 701 211 
Q 384 513 384 1019 
Q 384 1609 779 1909 
Q 1175 2209 1959 2209 
L 2766 2209 
L 2766 2266 
Q 2766 2663 2505 2880 
Q 2244 3097 1772 3097 
Q 1472 3097 1187 3025 
Q 903 2953 641 2809 
L 641 3341 
Q 956 3463 1253 3523 
Q 1550 3584 1831 3584 
Q 2591 3584 2966 3190 
Q 3341 2797 3341 1997 
z
" transform="scale(0.015625)"/>
       <path id="DejaVuSans-63" d="M 3122 3366 
L 3122 2828 
Q 2878 2963 2633 3030 
Q 2388 3097 2138 3097 
Q 1578 3097 1268 2742 
Q 959 2388 959 1747 
Q 959 1106 1268 751 
Q 1578 397 2138 397 
Q 2388 397 2633 464 
Q 2878 531 3122 666 
L 3122 134 
Q 2881 22 2623 -34 
Q 2366 -91 2075 -91 
Q 1284 -91 818 406 
Q 353 903 353 1747 
Q 353 2603 823 3093 
Q 1294 3584 2113 3584 
Q 2378 3584 2631 3529 
Q 2884 3475 3122 3366 
z
" transform="scale(0.015625)"/>
       <path id="DejaVuSans-69" d="M 603 3500 
L 1178 3500 
L 1178 0 
L 603 0 
L 603 3500 
z
M 603 4863 
L 1178 4863 
L 1178 4134 
L 603 4134 
L 603 4863 
z
" transform="scale(0.015625)"/>
       <path id="DejaVuSans-6f" d="M 1959 3097 
Q 1497 3097 1228 2736 
Q 959 2375 959 1747 
Q 959 1119 1226 758 
Q 1494 397 1959 397 
Q 2419 397 2687 759 
Q 2956 1122 2956 1747 
Q 2956 2369 2687 2733 
Q 2419 3097 1959 3097 
z
M 1959 3584 
Q 2709 3584 3137 3096 
Q 3566 2609 3566 1747 
Q 3566 888 3137 398 
Q 2709 -91 1959 -91 
Q 1206 -91 779 398 
Q 353 888 353 1747 
Q 353 2609 779 3096 
Q 1206 3584 1959 3584 
z
" transform="scale(0.015625)"/>
       <path id="DejaVuSans-6e" d="M 3513 2113 
L 3513 0 
L 2938 0 
L 2938 2094 
Q 2938 2591 2744 2837 
Q 2550 3084 2163 3084 
Q 1697 3084 1428 2787 
Q 1159 2491 1159 1978 
L 1159 0 
L 581 0 
L 581 3500 
L 1159 3500 
L 1159 2956 
Q 1366 3272 1645 3428 
Q 1925 3584 2291 3584 
Q 2894 3584 3203 3211 
Q 3513 2838 3513 2113 
z
" transform="scale(0.015625)"/>
       <path id="DejaVuSans-73" d="M 2834 3397 
L 2834 2853 
Q 2591 2978 2328 3040 
Q 2066 3103 1784 3103 
Q 1356 3103 1142 2972 
Q 928 2841 928 2578 
Q 928 2378 1081 2264 
Q 1234 2150 1697 2047 
L 1894 2003 
Q 2506 1872 2764 1633 
Q 3022 1394 3022 966 
Q 3022 478 2636 193 
Q 2250 -91 1575 -91 
Q 1294 -91 989 -36 
Q 684 19 347 128 
L 347 722 
Q 666 556 975 473 
Q 1284 391 1588 391 
Q 1994 391 2212 530 
Q 2431 669 2431 922 
Q 2431 1156 2273 1281 
Q 2116 1406 1581 1522 
L 1381 1569 
Q 847 1681 609 1914 
Q 372 2147 372 2553 
Q 372 3047 722 3315 
Q 1072 3584 1716 3584 
Q 2034 3584 2315 3537 
Q 2597 3491 2834 3397 
z
" transform="scale(0.015625)"/>
      </defs>
      <use xlink:href="#DejaVuSans-49"/>
      <use xlink:href="#DejaVuSans-74" transform="translate(29.492188 0)"/>
      <use xlink:href="#DejaVuSans-65" transform="translate(68.701172 0)"/>
      <use xlink:href="#DejaVuSans-72" transform="translate(130.224609 0)"/>
      <use xlink:href="#DejaVuSans-61" transform="translate(171.337891 0)"/>
      <use xlink:href="#DejaVuSans-63" transform="translate(232.617188 0)"/>
      <use xlink:href="#DejaVuSans-69" transform="translate(287.597656 0)"/>
      <use xlink:href="#DejaVuSans-6f" transform="translate(315.380859 0)"/>
      <use xlink:href="#DejaVuSans-6e" transform="translate(376.5625 0)"/>
      <use xlink:href="#DejaVuSans-65" transform="translate(439.941406 0)"/>
      <use xlink:href="#DejaVuSans-73" transform="translate(501.464844 0)"/>
     </g>
    </g>
   </g>
   <g id="matplotlib.axis_2">
    <g id="ytick_1">
     <g id="line2d_13">
      <path d="M 72 370.623997 
L 518.4 370.623997 
" clip-path="url(#p06065ad8cf)" style="fill: none; stroke: #b0b0b0; stroke-width: 0.8; stroke-linecap: square"/>
     </g>
     <g id="line2d_14">
      <defs>
       <path id="ma1eabf2df6" d="M 0 0 
L -3.5 0 
" style="stroke: #000000; stroke-width: 0.8"/>
      </defs>
      <g>
       <use xlink:href="#ma1eabf2df6" x="72" y="370.623997" style="stroke: #000000; stroke-width: 0.8"/>
      </g>
     </g>
     <g id="text_8">
      <!-- −2000 -->
      <g transform="translate(31.170313 374.423216) scale(0.1 -0.1)">
       <defs>
        <path id="DejaVuSans-2212" d="M 678 2272 
L 4684 2272 
L 4684 1741 
L 678 1741 
L 678 2272 
z
" transform="scale(0.015625)"/>
       </defs>
       <use xlink:href="#DejaVuSans-2212"/>
       <use xlink:href="#DejaVuSans-32" transform="translate(83.789062 0)"/>
       <use xlink:href="#DejaVuSans-30" transform="translate(147.412109 0)"/>
       <use xlink:href="#DejaVuSans-30" transform="translate(211.035156 0)"/>
       <use xlink:href="#DejaVuSans-30" transform="translate(274.658203 0)"/>
      </g>
     </g>
    </g>
    <g id="ytick_2">
     <g id="line2d_15">
      <path d="M 72 306.99465 
L 518.4 306.99465 
" clip-path="url(#p06065ad8cf)" style="fill: none; stroke: #b0b0b0; stroke-width: 0.8; stroke-linecap: square"/>
     </g>
     <g id="line2d_16">
      <g>
       <use xlink:href="#ma1eabf2df6" x="72" y="306.99465" style="stroke: #000000; stroke-width: 0.8"/>
      </g>
     </g>
     <g id="text_9">
      <!-- −1000 -->
      <g transform="translate(31.170313 310.793868) scale(0.1 -0.1)">
       <use xlink:href="#DejaVuSans-2212"/>
       <use xlink:href="#DejaVuSans-31" transform="translate(83.789062 0)"/>
       <use xlink:href="#DejaVuSans-30" transform="translate(147.412109 0)"/>
       <use xlink:href="#DejaVuSans-30" transform="translate(211.035156 0)"/>
       <use xlink:href="#DejaVuSans-30" transform="translate(274.658203 0)"/>
      </g>
     </g>
    </g>
    <g id="ytick_3">
     <g id="line2d_17">
      <path d="M 72 243.365302 
L 518.4 243.365302 
" clip-path="url(#p06065ad8cf)" style="fill: none; stroke: #b0b0b0; stroke-width: 0.8; stroke-linecap: square"/>
     </g>
     <g id="line2d_18">
      <g>
       <use xlink:href="#ma1eabf2df6" x="72" y="243.365302" style="stroke: #000000; stroke-width: 0.8"/>
      </g>
     </g>
     <g id="text_10">
      <!-- 0 -->
      <g transform="translate(58.6375 247.164521) scale(0.1 -0.1)">
       <use xlink:href="#DejaVuSans-30"/>
      </g>
     </g>
    </g>
    <g id="ytick_4">
     <g id="line2d_19">
      <path d="M 72 179.735955 
L 518.4 179.735955 
" clip-path="url(#p06065ad8cf)" style="fill: none; stroke: #b0b0b0; stroke-width: 0.8; stroke-linecap: square"/>
     </g>
     <g id="line2d_20">
      <g>
       <use xlink:href="#ma1eabf2df6" x="72" y="179.735955" style="stroke: #000000; stroke-width: 0.8"/>
      </g>
     </g>
     <g id="text_11">
      <!-- 1000 -->
      <g transform="translate(39.55 183.535174) scale(0.1 -0.1)">
       <use xlink:href="#DejaVuSans-31"/>
       <use xlink:href="#DejaVuSans-30" transform="translate(63.623047 0)"/>
       <use xlink:href="#DejaVuSans-30" transform="translate(127.246094 0)"/>
       <use xlink:href="#DejaVuSans-30" transform="translate(190.869141 0)"/>
      </g>
     </g>
    </g>
    <g id="ytick_5">
     <g id="line2d_21">
      <path d="M 72 116.106608 
L 518.4 116.106608 
" clip-path="url(#p06065ad8cf)" style="fill: none; stroke: #b0b0b0; stroke-width: 0.8; stroke-linecap: square"/>
     </g>
     <g id="line2d_22">
      <g>
       <use xlink:href="#ma1eabf2df6" x="72" y="116.106608" style="stroke: #000000; stroke-width: 0.8"/>
      </g>
     </g>
     <g id="text_12">
      <!-- 2000 -->
      <g transform="translate(39.55 119.905827) scale(0.1 -0.1)">
       <use xlink:href="#DejaVuSans-32"/>
       <use xlink:href="#DejaVuSans-30" transform="translate(63.623047 0)"/>
       <use xlink:href="#DejaVuSans-30" transform="translate(127.246094 0)"/>
       <use xlink:href="#DejaVuSans-30" transform="translate(190.869141 0)"/>
      </g>
     </g>
    </g>
    <g id="ytick_6">
     <g id="line2d_23">
      <path d="M 72 52.477261 
L 518.4 52.477261 
" clip-path="url(#p06065ad8cf)" style="fill: none; stroke: #b0b0b0; stroke-width: 0.8; stroke-linecap: square"/>
     </g>
     <g id="line2d_24">
      <g>
       <use xlink:href="#ma1eabf2df6" x="72" y="52.477261" style="stroke: #000000; stroke-width: 0.8"/>
      </g>
     </g>
     <g id="text_13">
      <!-- 3000 -->
      <g transform="translate(39.55 56.276479) scale(0.1 -0.1)">
       <defs>
        <path id="DejaVuSans-33" d="M 2597 2516 
Q 3050 2419 3304 2112 
Q 3559 1806 3559 1356 
Q 3559 666 3084 287 
Q 2609 -91 1734 -91 
Q 1441 -91 1130 -33 
Q 819 25 488 141 
L 488 750 
Q 750 597 1062 519 
Q 1375 441 1716 441 
Q 2309 441 2620 675 
Q 2931 909 2931 1356 
Q 2931 1769 2642 2001 
Q 2353 2234 1838 2234 
L 1294 2234 
L 1294 2753 
L 1863 2753 
Q 2328 2753 2575 2939 
Q 2822 3125 2822 3475 
Q 2822 3834 2567 4026 
Q 2313 4219 1838 4219 
Q 1578 4219 1281 4162 
Q 984 4106 628 3988 
L 628 4550 
Q 988 4650 1302 4700 
Q 1616 4750 1894 4750 
Q 2613 4750 3031 4423 
Q 3450 4097 3450 3541 
Q 3450 3153 3228 2886 
Q 3006 2619 2597 2516 
z
" transform="scale(0.015625)"/>
       </defs>
       <use xlink:href="#DejaVuSans-33"/>
       <use xlink:href="#DejaVuSans-30" transform="translate(63.623047 0)"/>
       <use xlink:href="#DejaVuSans-30" transform="translate(127.246094 0)"/>
       <use xlink:href="#DejaVuSans-30" transform="translate(190.869141 0)"/>
      </g>
     </g>
    </g>
    <g id="text_14">
     <!-- Valor de X -->
     <g transform="translate(25.090625 243.614687) rotate(-90) scale(0.1 -0.1)">
      <defs>
       <path id="DejaVuSans-56" d="M 1831 0 
L 50 4666 
L 709 4666 
L 2188 738 
L 3669 4666 
L 4325 4666 
L 2547 0 
L 1831 0 
z
" transform="scale(0.015625)"/>
       <path id="DejaVuSans-6c" d="M 603 4863 
L 1178 4863 
L 1178 0 
L 603 0 
L 603 4863 
z
" transform="scale(0.015625)"/>
       <path id="DejaVuSans-20" transform="scale(0.015625)"/>
       <path id="DejaVuSans-64" d="M 2906 2969 
L 2906 4863 
L 3481 4863 
L 3481 0 
L 2906 0 
L 2906 525 
Q 2725 213 2448 61 
Q 2172 -91 1784 -91 
Q 1150 -91 751 415 
Q 353 922 353 1747 
Q 353 2572 751 3078 
Q 1150 3584 1784 3584 
Q 2172 3584 2448 3432 
Q 2725 3281 2906 2969 
z
M 947 1747 
Q 947 1113 1208 752 
Q 1469 391 1925 391 
Q 2381 391 2643 752 
Q 2906 1113 2906 1747 
Q 2906 2381 2643 2742 
Q 2381 3103 1925 3103 
Q 1469 3103 1208 2742 
Q 947 2381 947 1747 
z
" transform="scale(0.015625)"/>
       <path id="DejaVuSans-58" d="M 403 4666 
L 1081 4666 
L 2241 2931 
L 3406 4666 
L 4084 4666 
L 2584 2425 
L 4184 0 
L 3506 0 
L 2194 1984 
L 872 0 
L 191 0 
L 1856 2491 
L 403 4666 
z
" transform="scale(0.015625)"/>
      </defs>
      <use xlink:href="#DejaVuSans-56"/>
      <use xlink:href="#DejaVuSans-61" transform="translate(60.658203 0)"/>
      <use xlink:href="#DejaVuSans-6c" transform="translate(121.9375 0)"/>
      <use xlink:href="#DejaVuSans-6f" transform="translate(149.720703 0)"/>
      <use xlink:href="#DejaVuSans-72" transform="translate(210.902344 0)"/>
      <use xlink:href="#DejaVuSans-20" transform="translate(252.015625 0)"/>
      <use xlink:href="#DejaVuSans-64" transform="translate(283.802734 0)"/>
      <use xlink:href="#DejaVuSans-65" transform="translate(347.279297 0)"/>
      <use xlink:href="#DejaVuSans-20" transform="translate(408.802734 0)"/>
      <use xlink:href="#DejaVuSans-58" transform="translate(440.589844 0)"/>
     </g>
    </g>
   </g>
   <g id="line2d_25">
    <path d="M 92.290909 243.428932 
L 96.390083 243.415315 
L 100.489256 243.40068 
L 104.58843 243.385028 
L 108.687603 243.368293 
L 112.786777 243.350286 
L 116.88595 243.33107 
L 120.985124 243.31039 
L 125.084298 243.288311 
L 129.183471 243.264641 
L 133.282645 243.239253 
L 137.381818 243.212083 
L 141.480992 243.182941 
L 145.580165 243.151762 
L 149.679339 243.118357 
L 153.778512 243.082534 
L 157.877686 243.044102 
L 161.97686 243.002997 
L 166.076033 242.958965 
L 170.175207 242.911752 
L 174.27438 242.861167 
L 178.373554 242.806955 
L 182.472727 242.748925 
L 186.571901 242.686695 
L 190.671074 242.620076 
L 194.770248 242.54862 
L 198.869421 242.472137 
L 202.968595 242.390183 
L 207.067769 242.302311 
L 211.166942 242.208203 
L 215.266116 242.107414 
L 219.365289 241.999371 
L 223.464463 241.883629 
L 227.563636 241.759616 
L 231.66281 241.626694 
L 235.761983 241.484355 
L 239.861157 241.331836 
L 243.960331 241.168372 
L 248.059504 240.993328 
L 252.158678 240.805685 
L 256.257851 240.60468 
L 260.357025 240.389294 
L 264.456198 240.158574 
L 268.555372 239.911311 
L 272.654545 239.646422 
L 276.753719 239.362635 
L 280.852893 239.05855 
L 284.952066 238.732704 
L 289.05124 238.383634 
L 293.150413 238.00962 
L 297.249587 237.608883 
L 301.34876 237.179575 
L 305.447934 236.719535 
L 309.547107 236.226662 
L 313.646281 235.698602 
L 317.745455 235.13281 
L 321.844628 234.52655 
L 325.943802 233.877021 
L 330.042975 233.181107 
L 334.142149 232.435499 
L 338.241322 231.636632 
L 342.340496 230.78069 
L 346.439669 229.8636 
L 350.538843 228.881036 
L 354.638017 227.828288 
L 358.73719 226.700267 
L 362.836364 225.491755 
L 366.935537 224.196898 
L 371.034711 222.809524 
L 375.133884 221.323078 
L 379.233058 219.7305 
L 383.332231 218.024088 
L 387.431405 216.195826 
L 391.530579 214.236933 
L 395.629752 212.138182 
L 399.728926 209.889521 
L 403.828099 207.480196 
L 407.927273 204.898817 
L 412.026446 202.132976 
L 416.12562 199.16963 
L 420.224793 195.994653 
L 424.323967 192.592837 
L 428.42314 188.948085 
L 432.522314 185.042961 
L 436.621488 180.858886 
L 440.720661 176.375944 
L 444.819835 171.572819 
L 448.919008 166.426605 
L 453.018182 160.912804 
L 457.117355 155.005137 
L 461.216529 148.675544 
L 465.315702 141.893801 
L 469.414876 134.627647 
L 473.51405 126.842533 
L 477.613223 118.501235 
L 481.712397 109.564238 
L 485.81157 99.988849 
L 489.910744 89.729444 
L 494.009917 78.737283 
L 498.109091 66.96 
" clip-path="url(#p06065ad8cf)" style="fill: none; stroke: #1f77b4; stroke-width: 1.5; stroke-linecap: square"/>
    <defs>
     <path id="m3eb4bf23c5" d="M 0 3 
C 0.795609 3 1.55874 2.683901 2.12132 2.12132 
C 2.683901 1.55874 3 0.795609 3 0 
C 3 -0.795609 2.683901 -1.55874 2.12132 -2.12132 
C 1.55874 -2.683901 0.795609 -3 0 -3 
C -0.795609 -3 -1.55874 -2.683901 -2.12132 -2.12132 
C -2.683901 -1.55874 -3 -0.795609 -3 0 
C -3 0.795609 -2.683901 1.55874 -2.12132 2.12132 
C -1.55874 2.683901 -0.795609 3 0 3 
z
" style="stroke: #1f77b4"/>
    </defs>
    <g clip-path="url(#p06065ad8cf)">
     <use xlink:href="#m3eb4bf23c5" x="92.290909" y="243.428932" style="fill: #1f77b4; stroke: #1f77b4"/>
     <use xlink:href="#m3eb4bf23c5" x="96.390083" y="243.415315" style="fill: #1f77b4; stroke: #1f77b4"/>
     <use xlink:href="#m3eb4bf23c5" x="100.489256" y="243.40068" style="fill: #1f77b4; stroke: #1f77b4"/>
     <use xlink:href="#m3eb4bf23c5" x="104.58843" y="243.385028" style="fill: #1f77b4; stroke: #1f77b4"/>
     <use xlink:href="#m3eb4bf23c5" x="108.687603" y="243.368293" style="fill: #1f77b4; stroke: #1f77b4"/>
     <use xlink:href="#m3eb4bf23c5" x="112.786777" y="243.350286" style="fill: #1f77b4; stroke: #1f77b4"/>
     <use xlink:href="#m3eb4bf23c5" x="116.88595" y="243.33107" style="fill: #1f77b4; stroke: #1f77b4"/>
     <use xlink:href="#m3eb4bf23c5" x="120.985124" y="243.31039" style="fill: #1f77b4; stroke: #1f77b4"/>
     <use xlink:href="#m3eb4bf23c5" x="125.084298" y="243.288311" style="fill: #1f77b4; stroke: #1f77b4"/>
     <use xlink:href="#m3eb4bf23c5" x="129.183471" y="243.264641" style="fill: #1f77b4; stroke: #1f77b4"/>
     <use xlink:href="#m3eb4bf23c5" x="133.282645" y="243.239253" style="fill: #1f77b4; stroke: #1f77b4"/>
     <use xlink:href="#m3eb4bf23c5" x="137.381818" y="243.212083" style="fill: #1f77b4; stroke: #1f77b4"/>
     <use xlink:href="#m3eb4bf23c5" x="141.480992" y="243.182941" style="fill: #1f77b4; stroke: #1f77b4"/>
     <use xlink:href="#m3eb4bf23c5" x="145.580165" y="243.151762" style="fill: #1f77b4; stroke: #1f77b4"/>
     <use xlink:href="#m3eb4bf23c5" x="149.679339" y="243.118357" style="fill: #1f77b4; stroke: #1f77b4"/>
     <use xlink:href="#m3eb4bf23c5" x="153.778512" y="243.082534" style="fill: #1f77b4; stroke: #1f77b4"/>
     <use xlink:href="#m3eb4bf23c5" x="157.877686" y="243.044102" style="fill: #1f77b4; stroke: #1f77b4"/>
     <use xlink:href="#m3eb4bf23c5" x="161.97686" y="243.002997" style="fill: #1f77b4; stroke: #1f77b4"/>
     <use xlink:href="#m3eb4bf23c5" x="166.076033" y="242.958965" style="fill: #1f77b4; stroke: #1f77b4"/>
     <use xlink:href="#m3eb4bf23c5" x="170.175207" y="242.911752" style="fill: #1f77b4; stroke: #1f77b4"/>
     <use xlink:href="#m3eb4bf23c5" x="174.27438" y="242.861167" style="fill: #1f77b4; stroke: #1f77b4"/>
     <use xlink:href="#m3eb4bf23c5" x="178.373554" y="242.806955" style="fill: #1f77b4; stroke: #1f77b4"/>
     <use xlink:href="#m3eb4bf23c5" x="182.472727" y="242.748925" style="fill: #1f77b4; stroke: #1f77b4"/>
     <use xlink:href="#m3eb4bf23c5" x="186.571901" y="242.686695" style="fill: #1f77b4; stroke: #1f77b4"/>
     <use xlink:href="#m3eb4bf23c5" x="190.671074" y="242.620076" style="fill: #1f77b4; stroke: #1f77b4"/>
     <use xlink:href="#m3eb4bf23c5" x="194.770248" y="242.54862" style="fill: #1f77b4; stroke: #1f77b4"/>
     <use xlink:href="#m3eb4bf23c5" x="198.869421" y="242.472137" style="fill: #1f77b4; stroke: #1f77b4"/>
     <use xlink:href="#m3eb4bf23c5" x="202.968595" y="242.390183" style="fill: #1f77b4; stroke: #1f77b4"/>
     <use xlink:href="#m3eb4bf23c5" x="207.067769" y="242.302311" style="fill: #1f77b4; stroke: #1f77b4"/>
     <use xlink:href="#m3eb4bf23c5" x="211.166942" y="242.208203" style="fill: #1f77b4; stroke: #1f77b4"/>
     <use xlink:href="#m3eb4bf23c5" x="215.266116" y="242.107414" style="fill: #1f77b4; stroke: #1f77b4"/>
     <use xlink:href="#m3eb4bf23c5" x="219.365289" y="241.999371" style="fill: #1f77b4; stroke: #1f77b4"/>
     <use xlink:href="#m3eb4bf23c5" x="223.464463" y="241.883629" style="fill: #1f77b4; stroke: #1f77b4"/>
     <use xlink:href="#m3eb4bf23c5" x="227.563636" y="241.759616" style="fill: #1f77b4; stroke: #1f77b4"/>
     <use xlink:href="#m3eb4bf23c5" x="231.66281" y="241.626694" style="fill: #1f77b4; stroke: #1f77b4"/>
     <use xlink:href="#m3eb4bf23c5" x="235.761983" y="241.484355" style="fill: #1f77b4; stroke: #1f77b4"/>
     <use xlink:href="#m3eb4bf23c5" x="239.861157" y="241.331836" style="fill: #1f77b4; stroke: #1f77b4"/>
     <use xlink:href="#m3eb4bf23c5" x="243.960331" y="241.168372" style="fill: #1f77b4; stroke: #1f77b4"/>
     <use xlink:href="#m3eb4bf23c5" x="248.059504" y="240.993328" style="fill: #1f77b4; stroke: #1f77b4"/>
     <use xlink:href="#m3eb4bf23c5" x="252.158678" y="240.805685" style="fill: #1f77b4; stroke: #1f77b4"/>
     <use xlink:href="#m3eb4bf23c5" x="256.257851" y="240.60468" style="fill: #1f77b4; stroke: #1f77b4"/>
     <use xlink:href="#m3eb4bf23c5" x="260.357025" y="240.389294" style="fill: #1f77b4; stroke: #1f77b4"/>
     <use xlink:href="#m3eb4bf23c5" x="264.456198" y="240.158574" style="fill: #1f77b4; stroke: #1f77b4"/>
     <use xlink:href="#m3eb4bf23c5" x="268.555372" y="239.911311" style="fill: #1f77b4; stroke: #1f77b4"/>
     <use xlink:href="#m3eb4bf23c5" x="272.654545" y="239.646422" style="fill: #1f77b4; stroke: #1f77b4"/>
     <use xlink:href="#m3eb4bf23c5" x="276.753719" y="239.362635" style="fill: #1f77b4; stroke: #1f77b4"/>
     <use xlink:href="#m3eb4bf23c5" x="280.852893" y="239.05855" style="fill: #1f77b4; stroke: #1f77b4"/>
     <use xlink:href="#m3eb4bf23c5" x="284.952066" y="238.732704" style="fill: #1f77b4; stroke: #1f77b4"/>
     <use xlink:href="#m3eb4bf23c5" x="289.05124" y="238.383634" style="fill: #1f77b4; stroke: #1f77b4"/>
     <use xlink:href="#m3eb4bf23c5" x="293.150413" y="238.00962" style="fill: #1f77b4; stroke: #1f77b4"/>
     <use xlink:href="#m3eb4bf23c5" x="297.249587" y="237.608883" style="fill: #1f77b4; stroke: #1f77b4"/>
     <use xlink:href="#m3eb4bf23c5" x="301.34876" y="237.179575" style="fill: #1f77b4; stroke: #1f77b4"/>
     <use xlink:href="#m3eb4bf23c5" x="305.447934" y="236.719535" style="fill: #1f77b4; stroke: #1f77b4"/>
     <use xlink:href="#m3eb4bf23c5" x="309.547107" y="236.226662" style="fill: #1f77b4; stroke: #1f77b4"/>
     <use xlink:href="#m3eb4bf23c5" x="313.646281" y="235.698602" style="fill: #1f77b4; stroke: #1f77b4"/>
     <use xlink:href="#m3eb4bf23c5" x="317.745455" y="235.13281" style="fill: #1f77b4; stroke: #1f77b4"/>
     <use xlink:href="#m3eb4bf23c5" x="321.844628" y="234.52655" style="fill: #1f77b4; stroke: #1f77b4"/>
     <use xlink:href="#m3eb4bf23c5" x="325.943802" y="233.877021" style="fill: #1f77b4; stroke: #1f77b4"/>
     <use xlink:href="#m3eb4bf23c5" x="330.042975" y="233.181107" style="fill: #1f77b4; stroke: #1f77b4"/>
     <use xlink:href="#m3eb4bf23c5" x="334.142149" y="232.435499" style="fill: #1f77b4; stroke: #1f77b4"/>
     <use xlink:href="#m3eb4bf23c5" x="338.241322" y="231.636632" style="fill: #1f77b4; stroke: #1f77b4"/>
     <use xlink:href="#m3eb4bf23c5" x="342.340496" y="230.78069" style="fill: #1f77b4; stroke: #1f77b4"/>
     <use xlink:href="#m3eb4bf23c5" x="346.439669" y="229.8636" style="fill: #1f77b4; stroke: #1f77b4"/>
     <use xlink:href="#m3eb4bf23c5" x="350.538843" y="228.881036" style="fill: #1f77b4; stroke: #1f77b4"/>
     <use xlink:href="#m3eb4bf23c5" x="354.638017" y="227.828288" style="fill: #1f77b4; stroke: #1f77b4"/>
     <use xlink:href="#m3eb4bf23c5" x="358.73719" y="226.700267" style="fill: #1f77b4; stroke: #1f77b4"/>
     <use xlink:href="#m3eb4bf23c5" x="362.836364" y="225.491755" style="fill: #1f77b4; stroke: #1f77b4"/>
     <use xlink:href="#m3eb4bf23c5" x="366.935537" y="224.196898" style="fill: #1f77b4; stroke: #1f77b4"/>
     <use xlink:href="#m3eb4bf23c5" x="371.034711" y="222.809524" style="fill: #1f77b4; stroke: #1f77b4"/>
     <use xlink:href="#m3eb4bf23c5" x="375.133884" y="221.323078" style="fill: #1f77b4; stroke: #1f77b4"/>
     <use xlink:href="#m3eb4bf23c5" x="379.233058" y="219.7305" style="fill: #1f77b4; stroke: #1f77b4"/>
     <use xlink:href="#m3eb4bf23c5" x="383.332231" y="218.024088" style="fill: #1f77b4; stroke: #1f77b4"/>
     <use xlink:href="#m3eb4bf23c5" x="387.431405" y="216.195826" style="fill: #1f77b4; stroke: #1f77b4"/>
     <use xlink:href="#m3eb4bf23c5" x="391.530579" y="214.236933" style="fill: #1f77b4; stroke: #1f77b4"/>
     <use xlink:href="#m3eb4bf23c5" x="395.629752" y="212.138182" style="fill: #1f77b4; stroke: #1f77b4"/>
     <use xlink:href="#m3eb4bf23c5" x="399.728926" y="209.889521" style="fill: #1f77b4; stroke: #1f77b4"/>
     <use xlink:href="#m3eb4bf23c5" x="403.828099" y="207.480196" style="fill: #1f77b4; stroke: #1f77b4"/>
     <use xlink:href="#m3eb4bf23c5" x="407.927273" y="204.898817" style="fill: #1f77b4; stroke: #1f77b4"/>
     <use xlink:href="#m3eb4bf23c5" x="412.026446" y="202.132976" style="fill: #1f77b4; stroke: #1f77b4"/>
     <use xlink:href="#m3eb4bf23c5" x="416.12562" y="199.16963" style="fill: #1f77b4; stroke: #1f77b4"/>
     <use xlink:href="#m3eb4bf23c5" x="420.224793" y="195.994653" style="fill: #1f77b4; stroke: #1f77b4"/>
     <use xlink:href="#m3eb4bf23c5" x="424.323967" y="192.592837" style="fill: #1f77b4; stroke: #1f77b4"/>
     <use xlink:href="#m3eb4bf23c5" x="428.42314" y="188.948085" style="fill: #1f77b4; stroke: #1f77b4"/>
     <use xlink:href="#m3eb4bf23c5" x="432.522314" y="185.042961" style="fill: #1f77b4; stroke: #1f77b4"/>
     <use xlink:href="#m3eb4bf23c5" x="436.621488" y="180.858886" style="fill: #1f77b4; stroke: #1f77b4"/>
     <use xlink:href="#m3eb4bf23c5" x="440.720661" y="176.375944" style="fill: #1f77b4; stroke: #1f77b4"/>
     <use xlink:href="#m3eb4bf23c5" x="444.819835" y="171.572819" style="fill: #1f77b4; stroke: #1f77b4"/>
     <use xlink:href="#m3eb4bf23c5" x="448.919008" y="166.426605" style="fill: #1f77b4; stroke: #1f77b4"/>
     <use xlink:href="#m3eb4bf23c5" x="453.018182" y="160.912804" style="fill: #1f77b4; stroke: #1f77b4"/>
     <use xlink:href="#m3eb4bf23c5" x="457.117355" y="155.005137" style="fill: #1f77b4; stroke: #1f77b4"/>
     <use xlink:href="#m3eb4bf23c5" x="461.216529" y="148.675544" style="fill: #1f77b4; stroke: #1f77b4"/>
     <use xlink:href="#m3eb4bf23c5" x="465.315702" y="141.893801" style="fill: #1f77b4; stroke: #1f77b4"/>
     <use xlink:href="#m3eb4bf23c5" x="469.414876" y="134.627647" style="fill: #1f77b4; stroke: #1f77b4"/>
     <use xlink:href="#m3eb4bf23c5" x="473.51405" y="126.842533" style="fill: #1f77b4; stroke: #1f77b4"/>
     <use xlink:href="#m3eb4bf23c5" x="477.613223" y="118.501235" style="fill: #1f77b4; stroke: #1f77b4"/>
     <use xlink:href="#m3eb4bf23c5" x="481.712397" y="109.564238" style="fill: #1f77b4; stroke: #1f77b4"/>
     <use xlink:href="#m3eb4bf23c5" x="485.81157" y="99.988849" style="fill: #1f77b4; stroke: #1f77b4"/>
     <use xlink:href="#m3eb4bf23c5" x="489.910744" y="89.729444" style="fill: #1f77b4; stroke: #1f77b4"/>
     <use xlink:href="#m3eb4bf23c5" x="494.009917" y="78.737283" style="fill: #1f77b4; stroke: #1f77b4"/>
     <use xlink:href="#m3eb4bf23c5" x="498.109091" y="66.96" style="fill: #1f77b4; stroke: #1f77b4"/>
    </g>
   </g>
   <g id="line2d_26">
    <path d="M 92.290909 243.310772 
L 96.390083 243.320507 
L 100.489256 243.330943 
L 104.58843 243.342141 
L 108.687603 243.354104 
L 112.786777 243.366957 
L 116.88595 243.380701 
L 120.985124 243.395399 
L 125.084298 243.411179 
L 129.183471 243.428105 
L 133.282645 243.446239 
L 137.381818 243.465646 
L 141.480992 243.486453 
L 145.580165 243.508723 
L 149.679339 243.532648 
L 153.778512 243.558227 
L 157.877686 243.585651 
L 161.97686 243.614984 
L 166.076033 243.646481 
L 170.175207 243.680204 
L 174.27438 243.716282 
L 178.373554 243.755032 
L 182.472727 243.796519 
L 186.571901 243.840932 
L 190.671074 243.888527 
L 194.770248 243.939557 
L 198.869421 243.994215 
L 202.968595 244.052754 
L 207.067769 244.115492 
L 211.166942 244.182685 
L 215.266116 244.254713 
L 219.365289 244.331896 
L 223.464463 244.41455 
L 227.563636 244.503122 
L 231.66281 244.598057 
L 235.761983 244.699737 
L 239.861157 244.808671 
L 243.960331 244.92543 
L 248.059504 245.050526 
L 252.158678 245.184529 
L 256.257851 245.328077 
L 260.357025 245.481933 
L 264.456198 245.646733 
L 268.555372 245.823368 
L 272.654545 246.012538 
L 276.753719 246.215261 
L 280.852893 246.432492 
L 284.952066 246.665184 
L 289.05124 246.914547 
L 293.150413 247.181663 
L 297.249587 247.467932 
L 301.34876 247.774625 
L 305.447934 248.103207 
L 309.547107 248.455205 
L 313.646281 248.832463 
L 317.745455 249.236573 
L 321.844628 249.669571 
L 325.943802 250.133556 
L 330.042975 250.630629 
L 334.142149 251.163206 
L 338.241322 251.733834 
L 342.340496 252.345185 
L 346.439669 253.000249 
L 350.538843 253.702144 
L 354.638017 254.454116 
L 358.73719 255.259791 
L 362.836364 256.12305 
L 366.935537 257.047903 
L 371.034711 258.03893 
L 375.133884 259.100649 
L 379.233058 260.238215 
L 383.332231 261.457098 
L 387.431405 262.762963 
L 391.530579 264.162173 
L 395.629752 265.66128 
L 399.728926 267.267476 
L 403.828099 268.988459 
L 407.927273 270.83231 
L 412.026446 272.807874 
L 416.12562 274.924504 
L 420.224793 277.192381 
L 424.323967 279.622259 
L 428.42314 282.225654 
L 432.522314 285.015037 
L 436.621488 288.003644 
L 440.720661 291.205727 
L 444.819835 294.636558 
L 448.919008 298.312425 
L 453.018182 302.250827 
L 457.117355 306.470598 
L 461.216529 310.991782 
L 465.315702 315.835884 
L 469.414876 321.025939 
L 473.51405 326.586762 
L 477.613223 332.544823 
L 481.712397 338.928437 
L 485.81157 345.767956 
L 489.910744 353.096084 
L 494.009917 360.947628 
L 498.109091 369.36 
" clip-path="url(#p06065ad8cf)" style="fill: none; stroke: #ff7f0e; stroke-width: 1.5; stroke-linecap: square"/>
    <defs>
     <path id="mf652951364" d="M 0 3 
C 0.795609 3 1.55874 2.683901 2.12132 2.12132 
C 2.683901 1.55874 3 0.795609 3 0 
C 3 -0.795609 2.683901 -1.55874 2.12132 -2.12132 
C 1.55874 -2.683901 0.795609 -3 0 -3 
C -0.795609 -3 -1.55874 -2.683901 -2.12132 -2.12132 
C -2.683901 -1.55874 -3 -0.795609 -3 0 
C -3 0.795609 -2.683901 1.55874 -2.12132 2.12132 
C -1.55874 2.683901 -0.795609 3 0 3 
z
" style="stroke: #ff7f0e"/>
    </defs>
    <g clip-path="url(#p06065ad8cf)">
     <use xlink:href="#mf652951364" x="92.290909" y="243.310772" style="fill: #ff7f0e; stroke: #ff7f0e"/>
     <use xlink:href="#mf652951364" x="96.390083" y="243.320507" style="fill: #ff7f0e; stroke: #ff7f0e"/>
     <use xlink:href="#mf652951364" x="100.489256" y="243.330943" style="fill: #ff7f0e; stroke: #ff7f0e"/>
     <use xlink:href="#mf652951364" x="104.58843" y="243.342141" style="fill: #ff7f0e; stroke: #ff7f0e"/>
     <use xlink:href="#mf652951364" x="108.687603" y="243.354104" style="fill: #ff7f0e; stroke: #ff7f0e"/>
     <use xlink:href="#mf652951364" x="112.786777" y="243.366957" style="fill: #ff7f0e; stroke: #ff7f0e"/>
     <use xlink:href="#mf652951364" x="116.88595" y="243.380701" style="fill: #ff7f0e; stroke: #ff7f0e"/>
     <use xlink:href="#mf652951364" x="120.985124" y="243.395399" style="fill: #ff7f0e; stroke: #ff7f0e"/>
     <use xlink:href="#mf652951364" x="125.084298" y="243.411179" style="fill: #ff7f0e; stroke: #ff7f0e"/>
     <use xlink:href="#mf652951364" x="129.183471" y="243.428105" style="fill: #ff7f0e; stroke: #ff7f0e"/>
     <use xlink:href="#mf652951364" x="133.282645" y="243.446239" style="fill: #ff7f0e; stroke: #ff7f0e"/>
     <use xlink:href="#mf652951364" x="137.381818" y="243.465646" style="fill: #ff7f0e; stroke: #ff7f0e"/>
     <use xlink:href="#mf652951364" x="141.480992" y="243.486453" style="fill: #ff7f0e; stroke: #ff7f0e"/>
     <use xlink:href="#mf652951364" x="145.580165" y="243.508723" style="fill: #ff7f0e; stroke: #ff7f0e"/>
     <use xlink:href="#mf652951364" x="149.679339" y="243.532648" style="fill: #ff7f0e; stroke: #ff7f0e"/>
     <use xlink:href="#mf652951364" x="153.778512" y="243.558227" style="fill: #ff7f0e; stroke: #ff7f0e"/>
     <use xlink:href="#mf652951364" x="157.877686" y="243.585651" style="fill: #ff7f0e; stroke: #ff7f0e"/>
     <use xlink:href="#mf652951364" x="161.97686" y="243.614984" style="fill: #ff7f0e; stroke: #ff7f0e"/>
     <use xlink:href="#mf652951364" x="166.076033" y="243.646481" style="fill: #ff7f0e; stroke: #ff7f0e"/>
     <use xlink:href="#mf652951364" x="170.175207" y="243.680204" style="fill: #ff7f0e; stroke: #ff7f0e"/>
     <use xlink:href="#mf652951364" x="174.27438" y="243.716282" style="fill: #ff7f0e; stroke: #ff7f0e"/>
     <use xlink:href="#mf652951364" x="178.373554" y="243.755032" style="fill: #ff7f0e; stroke: #ff7f0e"/>
     <use xlink:href="#mf652951364" x="182.472727" y="243.796519" style="fill: #ff7f0e; stroke: #ff7f0e"/>
     <use xlink:href="#mf652951364" x="186.571901" y="243.840932" style="fill: #ff7f0e; stroke: #ff7f0e"/>
     <use xlink:href="#mf652951364" x="190.671074" y="243.888527" style="fill: #ff7f0e; stroke: #ff7f0e"/>
     <use xlink:href="#mf652951364" x="194.770248" y="243.939557" style="fill: #ff7f0e; stroke: #ff7f0e"/>
     <use xlink:href="#mf652951364" x="198.869421" y="243.994215" style="fill: #ff7f0e; stroke: #ff7f0e"/>
     <use xlink:href="#mf652951364" x="202.968595" y="244.052754" style="fill: #ff7f0e; stroke: #ff7f0e"/>
     <use xlink:href="#mf652951364" x="207.067769" y="244.115492" style="fill: #ff7f0e; stroke: #ff7f0e"/>
     <use xlink:href="#mf652951364" x="211.166942" y="244.182685" style="fill: #ff7f0e; stroke: #ff7f0e"/>
     <use xlink:href="#mf652951364" x="215.266116" y="244.254713" style="fill: #ff7f0e; stroke: #ff7f0e"/>
     <use xlink:href="#mf652951364" x="219.365289" y="244.331896" style="fill: #ff7f0e; stroke: #ff7f0e"/>
     <use xlink:href="#mf652951364" x="223.464463" y="244.41455" style="fill: #ff7f0e; stroke: #ff7f0e"/>
     <use xlink:href="#mf652951364" x="227.563636" y="244.503122" style="fill: #ff7f0e; stroke: #ff7f0e"/>
     <use xlink:href="#mf652951364" x="231.66281" y="244.598057" style="fill: #ff7f0e; stroke: #ff7f0e"/>
     <use xlink:href="#mf652951364" x="235.761983" y="244.699737" style="fill: #ff7f0e; stroke: #ff7f0e"/>
     <use xlink:href="#mf652951364" x="239.861157" y="244.808671" style="fill: #ff7f0e; stroke: #ff7f0e"/>
     <use xlink:href="#mf652951364" x="243.960331" y="244.92543" style="fill: #ff7f0e; stroke: #ff7f0e"/>
     <use xlink:href="#mf652951364" x="248.059504" y="245.050526" style="fill: #ff7f0e; stroke: #ff7f0e"/>
     <use xlink:href="#mf652951364" x="252.158678" y="245.184529" style="fill: #ff7f0e; stroke: #ff7f0e"/>
     <use xlink:href="#mf652951364" x="256.257851" y="245.328077" style="fill: #ff7f0e; stroke: #ff7f0e"/>
     <use xlink:href="#mf652951364" x="260.357025" y="245.481933" style="fill: #ff7f0e; stroke: #ff7f0e"/>
     <use xlink:href="#mf652951364" x="264.456198" y="245.646733" style="fill: #ff7f0e; stroke: #ff7f0e"/>
     <use xlink:href="#mf652951364" x="268.555372" y="245.823368" style="fill: #ff7f0e; stroke: #ff7f0e"/>
     <use xlink:href="#mf652951364" x="272.654545" y="246.012538" style="fill: #ff7f0e; stroke: #ff7f0e"/>
     <use xlink:href="#mf652951364" x="276.753719" y="246.215261" style="fill: #ff7f0e; stroke: #ff7f0e"/>
     <use xlink:href="#mf652951364" x="280.852893" y="246.432492" style="fill: #ff7f0e; stroke: #ff7f0e"/>
     <use xlink:href="#mf652951364" x="284.952066" y="246.665184" style="fill: #ff7f0e; stroke: #ff7f0e"/>
     <use xlink:href="#mf652951364" x="289.05124" y="246.914547" style="fill: #ff7f0e; stroke: #ff7f0e"/>
     <use xlink:href="#mf652951364" x="293.150413" y="247.181663" style="fill: #ff7f0e; stroke: #ff7f0e"/>
     <use xlink:href="#mf652951364" x="297.249587" y="247.467932" style="fill: #ff7f0e; stroke: #ff7f0e"/>
     <use xlink:href="#mf652951364" x="301.34876" y="247.774625" style="fill: #ff7f0e; stroke: #ff7f0e"/>
     <use xlink:href="#mf652951364" x="305.447934" y="248.103207" style="fill: #ff7f0e; stroke: #ff7f0e"/>
     <use xlink:href="#mf652951364" x="309.547107" y="248.455205" style="fill: #ff7f0e; stroke: #ff7f0e"/>
     <use xlink:href="#mf652951364" x="313.646281" y="248.832463" style="fill: #ff7f0e; stroke: #ff7f0e"/>
     <use xlink:href="#mf652951364" x="317.745455" y="249.236573" style="fill: #ff7f0e; stroke: #ff7f0e"/>
     <use xlink:href="#mf652951364" x="321.844628" y="249.669571" style="fill: #ff7f0e; stroke: #ff7f0e"/>
     <use xlink:href="#mf652951364" x="325.943802" y="250.133556" style="fill: #ff7f0e; stroke: #ff7f0e"/>
     <use xlink:href="#mf652951364" x="330.042975" y="250.630629" style="fill: #ff7f0e; stroke: #ff7f0e"/>
     <use xlink:href="#mf652951364" x="334.142149" y="251.163206" style="fill: #ff7f0e; stroke: #ff7f0e"/>
     <use xlink:href="#mf652951364" x="338.241322" y="251.733834" style="fill: #ff7f0e; stroke: #ff7f0e"/>
     <use xlink:href="#mf652951364" x="342.340496" y="252.345185" style="fill: #ff7f0e; stroke: #ff7f0e"/>
     <use xlink:href="#mf652951364" x="346.439669" y="253.000249" style="fill: #ff7f0e; stroke: #ff7f0e"/>
     <use xlink:href="#mf652951364" x="350.538843" y="253.702144" style="fill: #ff7f0e; stroke: #ff7f0e"/>
     <use xlink:href="#mf652951364" x="354.638017" y="254.454116" style="fill: #ff7f0e; stroke: #ff7f0e"/>
     <use xlink:href="#mf652951364" x="358.73719" y="255.259791" style="fill: #ff7f0e; stroke: #ff7f0e"/>
     <use xlink:href="#mf652951364" x="362.836364" y="256.12305" style="fill: #ff7f0e; stroke: #ff7f0e"/>
     <use xlink:href="#mf652951364" x="366.935537" y="257.047903" style="fill: #ff7f0e; stroke: #ff7f0e"/>
     <use xlink:href="#mf652951364" x="371.034711" y="258.03893" style="fill: #ff7f0e; stroke: #ff7f0e"/>
     <use xlink:href="#mf652951364" x="375.133884" y="259.100649" style="fill: #ff7f0e; stroke: #ff7f0e"/>
     <use xlink:href="#mf652951364" x="379.233058" y="260.238215" style="fill: #ff7f0e; stroke: #ff7f0e"/>
     <use xlink:href="#mf652951364" x="383.332231" y="261.457098" style="fill: #ff7f0e; stroke: #ff7f0e"/>
     <use xlink:href="#mf652951364" x="387.431405" y="262.762963" style="fill: #ff7f0e; stroke: #ff7f0e"/>
     <use xlink:href="#mf652951364" x="391.530579" y="264.162173" style="fill: #ff7f0e; stroke: #ff7f0e"/>
     <use xlink:href="#mf652951364" x="395.629752" y="265.66128" style="fill: #ff7f0e; stroke: #ff7f0e"/>
     <use xlink:href="#mf652951364" x="399.728926" y="267.267476" style="fill: #ff7f0e; stroke: #ff7f0e"/>
     <use xlink:href="#mf652951364" x="403.828099" y="268.988459" style="fill: #ff7f0e; stroke: #ff7f0e"/>
     <use xlink:href="#mf652951364" x="407.927273" y="270.83231" style="fill: #ff7f0e; stroke: #ff7f0e"/>
     <use xlink:href="#mf652951364" x="412.026446" y="272.807874" style="fill: #ff7f0e; stroke: #ff7f0e"/>
     <use xlink:href="#mf652951364" x="416.12562" y="274.924504" style="fill: #ff7f0e; stroke: #ff7f0e"/>
     <use xlink:href="#mf652951364" x="420.224793" y="277.192381" style="fill: #ff7f0e; stroke: #ff7f0e"/>
     <use xlink:href="#mf652951364" x="424.323967" y="279.622259" style="fill: #ff7f0e; stroke: #ff7f0e"/>
     <use xlink:href="#mf652951364" x="428.42314" y="282.225654" style="fill: #ff7f0e; stroke: #ff7f0e"/>
     <use xlink:href="#mf652951364" x="432.522314" y="285.015037" style="fill: #ff7f0e; stroke: #ff7f0e"/>
     <use xlink:href="#mf652951364" x="436.621488" y="288.003644" style="fill: #ff7f0e; stroke: #ff7f0e"/>
     <use xlink:href="#mf652951364" x="440.720661" y="291.205727" style="fill: #ff7f0e; stroke: #ff7f0e"/>
     <use xlink:href="#mf652951364" x="444.819835" y="294.636558" style="fill: #ff7f0e; stroke: #ff7f0e"/>
     <use xlink:href="#mf652951364" x="448.919008" y="298.312425" style="fill: #ff7f0e; stroke: #ff7f0e"/>
     <use xlink:href="#mf652951364" x="453.018182" y="302.250827" style="fill: #ff7f0e; stroke: #ff7f0e"/>
     <use xlink:href="#mf652951364" x="457.117355" y="306.470598" style="fill: #ff7f0e; stroke: #ff7f0e"/>
     <use xlink:href="#mf652951364" x="461.216529" y="310.991782" style="fill: #ff7f0e; stroke: #ff7f0e"/>
     <use xlink:href="#mf652951364" x="465.315702" y="315.835884" style="fill: #ff7f0e; stroke: #ff7f0e"/>
     <use xlink:href="#mf652951364" x="469.414876" y="321.025939" style="fill: #ff7f0e; stroke: #ff7f0e"/>
     <use xlink:href="#mf652951364" x="473.51405" y="326.586762" style="fill: #ff7f0e; stroke: #ff7f0e"/>
     <use xlink:href="#mf652951364" x="477.613223" y="332.544823" style="fill: #ff7f0e; stroke: #ff7f0e"/>
     <use xlink:href="#mf652951364" x="481.712397" y="338.928437" style="fill: #ff7f0e; stroke: #ff7f0e"/>
     <use xlink:href="#mf652951364" x="485.81157" y="345.767956" style="fill: #ff7f0e; stroke: #ff7f0e"/>
     <use xlink:href="#mf652951364" x="489.910744" y="353.096084" style="fill: #ff7f0e; stroke: #ff7f0e"/>
     <use xlink:href="#mf652951364" x="494.009917" y="360.947628" style="fill: #ff7f0e; stroke: #ff7f0e"/>
     <use xlink:href="#mf652951364" x="498.109091" y="369.36" style="fill: #ff7f0e; stroke: #ff7f0e"/>
    </g>
   </g>
   <g id="line2d_27">
    <path d="M 72 66.96 
L 518.4 66.96 
" clip-path="url(#p06065ad8cf)" style="fill: none; stroke: #0000ff; stroke-width: 1.5; stroke-linecap: square"/>
   </g>
   <g id="line2d_28">
    <path d="M 72 369.36 
L 518.4 369.36 
" clip-path="url(#p06065ad8cf)" style="fill: none; stroke: #008000; stroke-width: 1.5; stroke-linecap: square"/>
   </g>
   <g id="patch_3">
    <path d="M 72 384.48 
L 72 51.84 
" style="fill: none; stroke: #000000; stroke-width: 0.8; stroke-linejoin: miter; stroke-linecap: square"/>
   </g>
   <g id="patch_4">
    <path d="M 518.4 384.48 
L 518.4 51.84 
" style="fill: none; stroke: #000000; stroke-width: 0.8; stroke-linejoin: miter; stroke-linecap: square"/>
   </g>
   <g id="patch_5">
    <path d="M 72 384.48 
L 518.4 384.48 
" style="fill: none; stroke: #000000; stroke-width: 0.8; stroke-linejoin: miter; stroke-linecap: square"/>
   </g>
   <g id="patch_6">
    <path d="M 72 51.84 
L 518.4 51.84 
" style="fill: none; stroke: #000000; stroke-width: 0.8; stroke-linejoin: miter; stroke-linecap: square"/>
   </g>
   <g id="text_15">
    <!-- Evolución iterativa (Radio espectral: 1.0714) -->
    <g transform="translate(161.2125 45.84) scale(0.12 -0.12)">
     <defs>
      <path id="DejaVuSans-45" d="M 628 4666 
L 3578 4666 
L 3578 4134 
L 1259 4134 
L 1259 2753 
L 3481 2753 
L 3481 2222 
L 1259 2222 
L 1259 531 
L 3634 531 
L 3634 0 
L 628 0 
L 628 4666 
z
" transform="scale(0.015625)"/>
      <path id="DejaVuSans-76" d="M 191 3500 
L 800 3500 
L 1894 563 
L 2988 3500 
L 3597 3500 
L 2284 0 
L 1503 0 
L 191 3500 
z
" transform="scale(0.015625)"/>
      <path id="DejaVuSans-75" d="M 544 1381 
L 544 3500 
L 1119 3500 
L 1119 1403 
Q 1119 906 1312 657 
Q 1506 409 1894 409 
Q 2359 409 2629 706 
Q 2900 1003 2900 1516 
L 2900 3500 
L 3475 3500 
L 3475 0 
L 2900 0 
L 2900 538 
Q 2691 219 2414 64 
Q 2138 -91 1772 -91 
Q 1169 -91 856 284 
Q 544 659 544 1381 
z
M 1991 3584 
L 1991 3584 
z
" transform="scale(0.015625)"/>
      <path id="DejaVuSans-f3" d="M 1959 3097 
Q 1497 3097 1228 2736 
Q 959 2375 959 1747 
Q 959 1119 1226 758 
Q 1494 397 1959 397 
Q 2419 397 2687 759 
Q 2956 1122 2956 1747 
Q 2956 2369 2687 2733 
Q 2419 3097 1959 3097 
z
M 1959 3584 
Q 2709 3584 3137 3096 
Q 3566 2609 3566 1747 
Q 3566 888 3137 398 
Q 2709 -91 1959 -91 
Q 1206 -91 779 398 
Q 353 888 353 1747 
Q 353 2609 779 3096 
Q 1206 3584 1959 3584 
z
M 2394 5119 
L 3016 5119 
L 1998 3944 
L 1519 3944 
L 2394 5119 
z
" transform="scale(0.015625)"/>
      <path id="DejaVuSans-28" d="M 1984 4856 
Q 1566 4138 1362 3434 
Q 1159 2731 1159 2009 
Q 1159 1288 1364 580 
Q 1569 -128 1984 -844 
L 1484 -844 
Q 1016 -109 783 600 
Q 550 1309 550 2009 
Q 550 2706 781 3412 
Q 1013 4119 1484 4856 
L 1984 4856 
z
" transform="scale(0.015625)"/>
      <path id="DejaVuSans-52" d="M 2841 2188 
Q 3044 2119 3236 1894 
Q 3428 1669 3622 1275 
L 4263 0 
L 3584 0 
L 2988 1197 
Q 2756 1666 2539 1819 
Q 2322 1972 1947 1972 
L 1259 1972 
L 1259 0 
L 628 0 
L 628 4666 
L 2053 4666 
Q 2853 4666 3247 4331 
Q 3641 3997 3641 3322 
Q 3641 2881 3436 2590 
Q 3231 2300 2841 2188 
z
M 1259 4147 
L 1259 2491 
L 2053 2491 
Q 2509 2491 2742 2702 
Q 2975 2913 2975 3322 
Q 2975 3731 2742 3939 
Q 2509 4147 2053 4147 
L 1259 4147 
z
" transform="scale(0.015625)"/>
      <path id="DejaVuSans-70" d="M 1159 525 
L 1159 -1331 
L 581 -1331 
L 581 3500 
L 1159 3500 
L 1159 2969 
Q 1341 3281 1617 3432 
Q 1894 3584 2278 3584 
Q 2916 3584 3314 3078 
Q 3713 2572 3713 1747 
Q 3713 922 3314 415 
Q 2916 -91 2278 -91 
Q 1894 -91 1617 61 
Q 1341 213 1159 525 
z
M 3116 1747 
Q 3116 2381 2855 2742 
Q 2594 3103 2138 3103 
Q 1681 3103 1420 2742 
Q 1159 2381 1159 1747 
Q 1159 1113 1420 752 
Q 1681 391 2138 391 
Q 2594 391 2855 752 
Q 3116 1113 3116 1747 
z
" transform="scale(0.015625)"/>
      <path id="DejaVuSans-3a" d="M 750 794 
L 1409 794 
L 1409 0 
L 750 0 
L 750 794 
z
M 750 3309 
L 1409 3309 
L 1409 2516 
L 750 2516 
L 750 3309 
z
" transform="scale(0.015625)"/>
      <path id="DejaVuSans-2e" d="M 684 794 
L 1344 794 
L 1344 0 
L 684 0 
L 684 794 
z
" transform="scale(0.015625)"/>
      <path id="DejaVuSans-37" d="M 525 4666 
L 3525 4666 
L 3525 4397 
L 1831 0 
L 1172 0 
L 2766 4134 
L 525 4134 
L 525 4666 
z
" transform="scale(0.015625)"/>
      <path id="DejaVuSans-29" d="M 513 4856 
L 1013 4856 
Q 1481 4119 1714 3412 
Q 1947 2706 1947 2009 
Q 1947 1309 1714 600 
Q 1481 -109 1013 -844 
L 513 -844 
Q 928 -128 1133 580 
Q 1338 1288 1338 2009 
Q 1338 2731 1133 3434 
Q 928 4138 513 4856 
z
" transform="scale(0.015625)"/>
     </defs>
     <use xlink:href="#DejaVuSans-45"/>
     <use xlink:href="#DejaVuSans-76" transform="translate(63.183594 0)"/>
     <use xlink:href="#DejaVuSans-6f" transform="translate(122.363281 0)"/>
     <use xlink:href="#DejaVuSans-6c" transform="translate(183.544922 0)"/>
     <use xlink:href="#DejaVuSans-75" transform="translate(211.328125 0)"/>
     <use xlink:href="#DejaVuSans-63" transform="translate(274.707031 0)"/>
     <use xlink:href="#DejaVuSans-69" transform="translate(329.6875 0)"/>
     <use xlink:href="#DejaVuSans-f3" transform="translate(357.470703 0)"/>
     <use xlink:href="#DejaVuSans-6e" transform="translate(418.652344 0)"/>
     <use xlink:href="#DejaVuSans-20" transform="translate(482.03125 0)"/>
     <use xlink:href="#DejaVuSans-69" transform="translate(513.818359 0)"/>
     <use xlink:href="#DejaVuSans-74" transform="translate(541.601562 0)"/>
     <use xlink:href="#DejaVuSans-65" transform="translate(580.810547 0)"/>
     <use xlink:href="#DejaVuSans-72" transform="translate(642.333984 0)"/>
     <use xlink:href="#DejaVuSans-61" transform="translate(683.447266 0)"/>
     <use xlink:href="#DejaVuSans-74" transform="translate(744.726562 0)"/>
     <use xlink:href="#DejaVuSans-69" transform="translate(783.935547 0)"/>
     <use xlink:href="#DejaVuSans-76" transform="translate(811.71875 0)"/>
     <use xlink:href="#DejaVuSans-61" transform="translate(870.898438 0)"/>
     <use xlink:href="#DejaVuSans-20" transform="translate(932.177734 0)"/>
     <use xlink:href="#DejaVuSans-28" transform="translate(963.964844 0)"/>
     <use xlink:href="#DejaVuSans-52" transform="translate(1002.978516 0)"/>
     <use xlink:href="#DejaVuSans-61" transform="translate(1070.210938 0)"/>
     <use xlink:href="#DejaVuSans-64" transform="translate(1131.490234 0)"/>
     <use xlink:href="#DejaVuSans-69" transform="translate(1194.966797 0)"/>
     <use xlink:href="#DejaVuSans-6f" transform="translate(1222.75 0)"/>
     <use xlink:href="#DejaVuSans-20" transform="translate(1283.931641 0)"/>
     <use xlink:href="#DejaVuSans-65" transform="translate(1315.71875 0)"/>
     <use xlink:href="#DejaVuSans-73" transform="translate(1377.242188 0)"/>
     <use xlink:href="#DejaVuSans-70" transform="translate(1429.341797 0)"/>
     <use xlink:href="#DejaVuSans-65" transform="translate(1492.818359 0)"/>
     <use xlink:href="#DejaVuSans-63" transform="translate(1554.341797 0)"/>
     <use xlink:href="#DejaVuSans-74" transform="translate(1609.322266 0)"/>
     <use xlink:href="#DejaVuSans-72" transform="translate(1648.53125 0)"/>
     <use xlink:href="#DejaVuSans-61" transform="translate(1689.644531 0)"/>
     <use xlink:href="#DejaVuSans-6c" transform="translate(1750.923828 0)"/>
     <use xlink:href="#DejaVuSans-3a" transform="translate(1778.707031 0)"/>
     <use xlink:href="#DejaVuSans-20" transform="translate(1812.398438 0)"/>
     <use xlink:href="#DejaVuSans-31" transform="translate(1844.185547 0)"/>
     <use xlink:href="#DejaVuSans-2e" transform="translate(1907.808594 0)"/>
     <use xlink:href="#DejaVuSans-30" transform="translate(1939.595703 0)"/>
     <use xlink:href="#DejaVuSans-37" transform="translate(2003.21875 0)"/>
     <use xlink:href="#DejaVuSans-31" transform="translate(2066.841797 0)"/>
     <use xlink:href="#DejaVuSans-34" transform="translate(2130.464844 0)"/>
     <use xlink:href="#DejaVuSans-29" transform="translate(2194.087891 0)"/>
    </g>
   </g>
   <g id="legend_1">
    <g id="patch_7">
     <path d="M 79 118.5525 
L 231.86875 118.5525 
Q 233.86875 118.5525 233.86875 116.5525 
L 233.86875 58.84 
Q 233.86875 56.84 231.86875 56.84 
L 79 56.84 
Q 77 56.84 77 58.84 
L 77 116.5525 
Q 77 118.5525 79 118.5525 
z
" style="fill: #ffffff; opacity: 0.8; stroke: #cccccc; stroke-linejoin: miter"/>
    </g>
    <g id="line2d_29">
     <path d="M 81 64.938438 
L 91 64.938438 
L 101 64.938438 
" style="fill: none; stroke: #1f77b4; stroke-width: 1.5; stroke-linecap: square"/>
     <g>
      <use xlink:href="#m3eb4bf23c5" x="91" y="64.938438" style="fill: #1f77b4; stroke: #1f77b4"/>
     </g>
    </g>
    <g id="text_16">
     <!-- x1 (iterativo) -->
     <g transform="translate(109 68.438438) scale(0.1 -0.1)">
      <defs>
       <path id="DejaVuSans-78" d="M 3513 3500 
L 2247 1797 
L 3578 0 
L 2900 0 
L 1881 1375 
L 863 0 
L 184 0 
L 1544 1831 
L 300 3500 
L 978 3500 
L 1906 2253 
L 2834 3500 
L 3513 3500 
z
" transform="scale(0.015625)"/>
      </defs>
      <use xlink:href="#DejaVuSans-78"/>
      <use xlink:href="#DejaVuSans-31" transform="translate(59.179688 0)"/>
      <use xlink:href="#DejaVuSans-20" transform="translate(122.802734 0)"/>
      <use xlink:href="#DejaVuSans-28" transform="translate(154.589844 0)"/>
      <use xlink:href="#DejaVuSans-69" transform="translate(193.603516 0)"/>
      <use xlink:href="#DejaVuSans-74" transform="translate(221.386719 0)"/>
      <use xlink:href="#DejaVuSans-65" transform="translate(260.595703 0)"/>
      <use xlink:href="#DejaVuSans-72" transform="translate(322.119141 0)"/>
      <use xlink:href="#DejaVuSans-61" transform="translate(363.232422 0)"/>
      <use xlink:href="#DejaVuSans-74" transform="translate(424.511719 0)"/>
      <use xlink:href="#DejaVuSans-69" transform="translate(463.720703 0)"/>
      <use xlink:href="#DejaVuSans-76" transform="translate(491.503906 0)"/>
      <use xlink:href="#DejaVuSans-6f" transform="translate(550.683594 0)"/>
      <use xlink:href="#DejaVuSans-29" transform="translate(611.865234 0)"/>
     </g>
    </g>
    <g id="line2d_30">
     <path d="M 81 79.616563 
L 91 79.616563 
L 101 79.616563 
" style="fill: none; stroke: #ff7f0e; stroke-width: 1.5; stroke-linecap: square"/>
     <g>
      <use xlink:href="#mf652951364" x="91" y="79.616563" style="fill: #ff7f0e; stroke: #ff7f0e"/>
     </g>
    </g>
    <g id="text_17">
     <!-- x2 (iterativo) -->
     <g transform="translate(109 83.116563) scale(0.1 -0.1)">
      <use xlink:href="#DejaVuSans-78"/>
      <use xlink:href="#DejaVuSans-32" transform="translate(59.179688 0)"/>
      <use xlink:href="#DejaVuSans-20" transform="translate(122.802734 0)"/>
      <use xlink:href="#DejaVuSans-28" transform="translate(154.589844 0)"/>
      <use xlink:href="#DejaVuSans-69" transform="translate(193.603516 0)"/>
      <use xlink:href="#DejaVuSans-74" transform="translate(221.386719 0)"/>
      <use xlink:href="#DejaVuSans-65" transform="translate(260.595703 0)"/>
      <use xlink:href="#DejaVuSans-72" transform="translate(322.119141 0)"/>
      <use xlink:href="#DejaVuSans-61" transform="translate(363.232422 0)"/>
      <use xlink:href="#DejaVuSans-74" transform="translate(424.511719 0)"/>
      <use xlink:href="#DejaVuSans-69" transform="translate(463.720703 0)"/>
      <use xlink:href="#DejaVuSans-76" transform="translate(491.503906 0)"/>
      <use xlink:href="#DejaVuSans-6f" transform="translate(550.683594 0)"/>
      <use xlink:href="#DejaVuSans-29" transform="translate(611.865234 0)"/>
     </g>
    </g>
    <g id="line2d_31">
     <path d="M 81 94.294688 
L 91 94.294688 
L 101 94.294688 
" style="fill: none; stroke: #0000ff; stroke-width: 1.5; stroke-linecap: square"/>
    </g>
    <g id="text_18">
     <!-- x1 solución: 2772.3890 -->
     <g transform="translate(109 97.794688) scale(0.1 -0.1)">
      <defs>
       <path id="DejaVuSans-39" d="M 703 97 
L 703 672 
Q 941 559 1184 500 
Q 1428 441 1663 441 
Q 2288 441 2617 861 
Q 2947 1281 2994 2138 
Q 2813 1869 2534 1725 
Q 2256 1581 1919 1581 
Q 1219 1581 811 2004 
Q 403 2428 403 3163 
Q 403 3881 828 4315 
Q 1253 4750 1959 4750 
Q 2769 4750 3195 4129 
Q 3622 3509 3622 2328 
Q 3622 1225 3098 567 
Q 2575 -91 1691 -91 
Q 1453 -91 1209 -44 
Q 966 3 703 97 
z
M 1959 2075 
Q 2384 2075 2632 2365 
Q 2881 2656 2881 3163 
Q 2881 3666 2632 3958 
Q 2384 4250 1959 4250 
Q 1534 4250 1286 3958 
Q 1038 3666 1038 3163 
Q 1038 2656 1286 2365 
Q 1534 2075 1959 2075 
z
" transform="scale(0.015625)"/>
      </defs>
      <use xlink:href="#DejaVuSans-78"/>
      <use xlink:href="#DejaVuSans-31" transform="translate(59.179688 0)"/>
      <use xlink:href="#DejaVuSans-20" transform="translate(122.802734 0)"/>
      <use xlink:href="#DejaVuSans-73" transform="translate(154.589844 0)"/>
      <use xlink:href="#DejaVuSans-6f" transform="translate(206.689453 0)"/>
      <use xlink:href="#DejaVuSans-6c" transform="translate(267.871094 0)"/>
      <use xlink:href="#DejaVuSans-75" transform="translate(295.654297 0)"/>
      <use xlink:href="#DejaVuSans-63" transform="translate(359.033203 0)"/>
      <use xlink:href="#DejaVuSans-69" transform="translate(414.013672 0)"/>
      <use xlink:href="#DejaVuSans-f3" transform="translate(441.796875 0)"/>
      <use xlink:href="#DejaVuSans-6e" transform="translate(502.978516 0)"/>
      <use xlink:href="#DejaVuSans-3a" transform="translate(566.357422 0)"/>
      <use xlink:href="#DejaVuSans-20" transform="translate(600.048828 0)"/>
      <use xlink:href="#DejaVuSans-32" transform="translate(631.835938 0)"/>
      <use xlink:href="#DejaVuSans-37" transform="translate(695.458984 0)"/>
      <use xlink:href="#DejaVuSans-37" transform="translate(759.082031 0)"/>
      <use xlink:href="#DejaVuSans-32" transform="translate(822.705078 0)"/>
      <use xlink:href="#DejaVuSans-2e" transform="translate(886.328125 0)"/>
      <use xlink:href="#DejaVuSans-33" transform="translate(918.115234 0)"/>
      <use xlink:href="#DejaVuSans-38" transform="translate(981.738281 0)"/>
      <use xlink:href="#DejaVuSans-39" transform="translate(1045.361328 0)"/>
      <use xlink:href="#DejaVuSans-30" transform="translate(1108.984375 0)"/>
     </g>
    </g>
    <g id="line2d_32">
     <path d="M 81 108.972813 
L 91 108.972813 
L 101 108.972813 
" style="fill: none; stroke: #008000; stroke-width: 1.5; stroke-linecap: square"/>
    </g>
    <g id="text_19">
     <!-- x2 solución: -1980.1350 -->
     <g transform="translate(109 112.472813) scale(0.1 -0.1)">
      <defs>
       <path id="DejaVuSans-2d" d="M 313 2009 
L 1997 2009 
L 1997 1497 
L 313 1497 
L 313 2009 
z
" transform="scale(0.015625)"/>
       <path id="DejaVuSans-35" d="M 691 4666 
L 3169 4666 
L 3169 4134 
L 1269 4134 
L 1269 2991 
Q 1406 3038 1543 3061 
Q 1681 3084 1819 3084 
Q 2600 3084 3056 2656 
Q 3513 2228 3513 1497 
Q 3513 744 3044 326 
Q 2575 -91 1722 -91 
Q 1428 -91 1123 -41 
Q 819 9 494 109 
L 494 744 
Q 775 591 1075 516 
Q 1375 441 1709 441 
Q 2250 441 2565 725 
Q 2881 1009 2881 1497 
Q 2881 1984 2565 2268 
Q 2250 2553 1709 2553 
Q 1456 2553 1204 2497 
Q 953 2441 691 2322 
L 691 4666 
z
" transform="scale(0.015625)"/>
      </defs>
      <use xlink:href="#DejaVuSans-78"/>
      <use xlink:href="#DejaVuSans-32" transform="translate(59.179688 0)"/>
      <use xlink:href="#DejaVuSans-20" transform="translate(122.802734 0)"/>
      <use xlink:href="#DejaVuSans-73" transform="translate(154.589844 0)"/>
      <use xlink:href="#DejaVuSans-6f" transform="translate(206.689453 0)"/>
      <use xlink:href="#DejaVuSans-6c" transform="translate(267.871094 0)"/>
      <use xlink:href="#DejaVuSans-75" transform="translate(295.654297 0)"/>
      <use xlink:href="#DejaVuSans-63" transform="translate(359.033203 0)"/>
      <use xlink:href="#DejaVuSans-69" transform="translate(414.013672 0)"/>
      <use xlink:href="#DejaVuSans-f3" transform="translate(441.796875 0)"/>
      <use xlink:href="#DejaVuSans-6e" transform="translate(502.978516 0)"/>
      <use xlink:href="#DejaVuSans-3a" transform="translate(566.357422 0)"/>
      <use xlink:href="#DejaVuSans-20" transform="translate(600.048828 0)"/>
      <use xlink:href="#DejaVuSans-2d" transform="translate(631.835938 0)"/>
      <use xlink:href="#DejaVuSans-31" transform="translate(667.919922 0)"/>
      <use xlink:href="#DejaVuSans-39" transform="translate(731.542969 0)"/>
      <use xlink:href="#DejaVuSans-38" transform="translate(795.166016 0)"/>
      <use xlink:href="#DejaVuSans-30" transform="translate(858.789062 0)"/>
      <use xlink:href="#DejaVuSans-2e" transform="translate(922.412109 0)"/>
      <use xlink:href="#DejaVuSans-31" transform="translate(954.199219 0)"/>
      <use xlink:href="#DejaVuSans-33" transform="translate(1017.822266 0)"/>
      <use xlink:href="#DejaVuSans-35" transform="translate(1081.445312 0)"/>
      <use xlink:href="#DejaVuSans-30" transform="translate(1145.068359 0)"/>
     </g>
    </g>
   </g>
  </g>
 </g>
 <defs>
  <clipPath id="p06065ad8cf">
   <rect x="72" y="51.84" width="446.4" height="332.64"/>
  </clipPath>
 </defs>
</svg>
